<svg
 width="128"
 height="128"
 viewBox="0 0 128 128"
 fill="none"
 xmlns="http://www.w3.org/2000/svg"
>
 <g id="Safe">
  <g id="VaultDoor">
   <path
    id="Vector5"
    d="M104 94H24C21.7909 94 20 92.2091 20 90V26C20 23.7909 21.7909 22 24 22H104C106.209 22 108 23.7909 108 26V90C108 92.2091 106.209 94 104 94Z"
    fill="#D5E3FD"
    stroke="#232754"
    stroke-width="2"
    stroke-linejoin="round"
   />
   <path
    id="Vector4"
    d="M110 36V40C110 41.1046 109.105 42 108 42C106.895 42 106 41.1046 106 40V36C106 34.8954 106.895 34 108 34C109.105 34 110 34.8954 110 36Z"
    fill="white"
    stroke="#232754"
    stroke-width="2"
    stroke-linejoin="round"
   />
   <path
    id="Vector3"
    d="M110 76V80C110 81.1046 109.105 82 108 82C106.895 82 106 81.1046 106 80V76C106 74.8954 106.895 74 108 74C109.105 74 110 74.8954 110 76Z"
    fill="white"
    stroke="#232754"
    stroke-width="2"
    stroke-linejoin="round"
   />
   <path
    id="Vector2_2"
    d="M34 33V83C34 84.6569 32.6569 86 31 86C29.3431 86 28 84.6569 28 83V33C28 31.3431 29.3431 30 31 30C32.6569 30 34 31.3431 34 33Z"
    fill="#A9C1FB"
    stroke="#232754"
    stroke-width="2"
    stroke-linejoin="round"
   />
   <g id="VaultLock">
    <circle
      id="Vector1_3"
      r="23"
      transform="matrix(1 0 0 -1 71 58)"
      fill="white"
      stroke="#232754"
      stroke-width="2"
    />
    <path
     id="Vector3_2"
     d="M72 43C72 42.4477 71.5523 42 71 42C70.4477 42 70 42.4477 70 43H72ZM86 59C86.5523 59 87 58.5523 87 58C87 57.4477 86.5523 57 86 57V59ZM81.2426 69.6569C81.6331 70.0474 82.2663 70.0474 82.6568 69.6569C83.0473 69.2664 83.0473 68.6332 82.6568 68.2427L81.2426 69.6569ZM60.7071 46.2929C60.3166 45.9024 59.6834 45.9024 59.2929 46.2929C58.9024 46.6834 58.9024 47.3166 59.2929 47.7071L60.7071 46.2929ZM59.2929 68.2427C58.9024 68.6332 58.9024 69.2664 59.2929 69.6569C59.6834 70.0474 60.3166 70.0474 60.7071 69.6569L59.2929 68.2427ZM82.6568 47.7071C83.0473 47.3166 83.0473 46.6834 82.6568 46.2929C82.2663 45.9024 81.6331 45.9024 81.2426 46.2929L82.6568 47.7071ZM70 73C70 73.5523 70.4477 74 71 74C71.5523 74 72 73.5523 72 73L70 73ZM56 57C55.4477 57 55 57.4477 55 58C55 58.5523 55.4477 59 56 59V57ZM72 50V43H70V50H72ZM79 59H86V57H79V59ZM76.2929 64.7071L81.2426 69.6569L82.6568 68.2427L77.7071 63.2929L76.2929 64.7071ZM65.6569 51.2426L60.7071 46.2929L59.2929 47.7071L64.2426 52.6569L65.6569 51.2426ZM64.2426 63.2929L59.2929 68.2427L60.7071 69.6569L65.6569 64.7071L64.2426 63.2929ZM77.7071 52.6569L82.6568 47.7071L81.2426 46.2929L76.2929 51.2426L77.7071 52.6569ZM70 66L70 73L72 73L72 66L70 66ZM63 57H56V59H63V57Z"
     fill="#232754"
    />
    <circle
     id="Vector2_3"
     cx="71"
     cy="58"
     r="8"
     fill="#A9C1FB"
     stroke="#232754"
     stroke-width="2"
    />
    <circle id="Vector1_4" cx="71" cy="58" r="3" fill="#6371A2" />
   </g>
 </g>
 </g>
</svg>
