<svg
 width="128"
 height="128"
 viewBox="0 0 128 128"
 fill="none"
 xmlns="http://www.w3.org/2000/svg"
>
  <g id="Safe">
    <path
    id="SafeBox"
    d="M120 105H8V12H64H120V105Z"
    fill="#D5E3FD"
    stroke="#232754"
    stroke-width="3"
    />
    <g id="Legs">
      <g id="Vector2">
        <path d="M28 117L24 105H36V117H28Z" fill="#232754" />
        <path
        d="M24 105V104C23.6786 104 23.3767 104.155 23.1888 104.415C23.0008 104.676 22.9497 105.011 23.0513 105.316L24 105ZM28 117L27.0513 117.316L27.2792 118H28V117ZM36 117V118H37V117H36ZM36 105H37C37 104.448 36.5523 104 36 104V105ZM23.0513 105.316L27.0513 117.316L28.9487 116.684L24.9487 104.684L23.0513 105.316ZM28 118H36V116H28V118ZM37 117V105H35V117H37ZM36 104H24V106H36V104Z"
        fill="#232754"
        />
      </g>
      <g id="Vector1_2">
        <path d="M101 117L105 105H93V117H101Z" fill="#232754" />
        <path
        d="M105 105L105.949 105.316C106.05 105.011 105.999 104.676 105.811 104.415C105.623 104.155 105.321 104 105 104V105ZM101 117V118H101.721L101.949 117.316L101 117ZM93 117H92V118H93V117ZM93 105V104C92.4477 104 92 104.448 92 105H93ZM104.051 104.684L100.051 116.684L101.949 117.316L105.949 105.316L104.051 104.684ZM101 116H93V118H101V116ZM94 117V105H92V117H94ZM93 106H105V104H93V106Z"
        fill="#232754"
        />
      </g>
    </g>
  </g>
</svg>
