<svg width="128" height="128" viewBox="0 0 128 128" fill="none" xmlns="http://www.w3.org/2000/svg">
  <g id="Box">
    <g id="Top">
      <path id="Vector1" d="M120 12H8V30H120V12Z" fill="#D5E3FD" stroke="#232754" stroke-width="3"/>
    </g>
    <g id="Bottom">
      <path id="Vector3" d="M116 105H12V30H116V105Z" fill="#D5E3FD" stroke="#232754" stroke-width="3"/>
      <path id="Vector2" d="M13.5 32.5H114.5" stroke="#A9C1FB" stroke-width="2"/>
    </g>
    <g id="CompleteMark">
      <path d="M70 17H58V19.75V22.5L58.2683 23.305C58.4179 23.7537 58.4036 24.241 58.2279 24.6802L58 25.25V28V33.5V39H59.5L59.7094 38.7906C60.1816 38.3184 60.9028 38.2014 61.5 38.5L62.5 39H64H64.5986C65.1617 39 65.6876 38.7186 66 38.25L66.1873 37.969C66.3827 37.676 66.7115 37.5 67.0637 37.5C67.3431 37.5 67.611 37.611 67.8085 37.8085L67.8593 37.8593C67.9525 37.9525 68.0301 38.0601 68.089 38.178L68.104 38.208C68.3467 38.6934 68.8428 39 69.3855 39H70V33.5V28L69.7317 27.195C69.5821 26.7463 69.5964 26.259 69.7721 25.8198L70 25.25V24V22.5V17Z" fill="white"/>
      <path d="M58 17V16.5H57.5V17H58ZM70 17H70.5V16.5H70V17ZM70 28H70.5V27.9189L70.4743 27.8419L70 28ZM70 39V39.5H70.5V39H70ZM58 39H57.5V39.5H58V39ZM58 22.5H57.5V22.5811L57.5257 22.6581L58 22.5ZM58 25.25L57.5358 25.0643L57.5 25.1537V25.25H58ZM58.2279 24.6802L58.6922 24.8659L58.6922 24.8659L58.2279 24.6802ZM58.2683 23.305L57.794 23.4631L57.794 23.4631L58.2683 23.305ZM70 25.25L70.4642 25.4357L70.5 25.3463V25.25H70ZM69.7721 25.8198L70.2363 26.0055L70.2363 26.0055L69.7721 25.8198ZM69.7317 27.195L69.2573 27.3531L69.2573 27.3531L69.7317 27.195ZM59.5 39V39.5H59.7071L59.8536 39.3536L59.5 39ZM62.5 39L62.2764 39.4472L62.382 39.5H62.5V39ZM61.5 38.5L61.2764 38.9472L61.2764 38.9472L61.5 38.5ZM66.1873 37.969L65.7713 37.6917L65.7713 37.6917L66.1873 37.969ZM66 38.25L66.416 38.5274L66.416 38.5273L66 38.25ZM59.7094 38.7906L59.3559 38.437L59.3559 38.437L59.7094 38.7906ZM67.8593 37.8593L67.5057 38.2128L67.5057 38.2128L67.8593 37.8593ZM67.8085 37.8085L68.1621 37.455L68.1621 37.455L67.8085 37.8085ZM58 17.5H70V16.5H58V17.5ZM69.5 17V22.5H70.5V17H69.5ZM69.5 28V33.5H70.5V28H69.5ZM69.5 33.5V39H70.5V33.5H69.5ZM58.5 39V33.5H57.5V39H58.5ZM58.5 33.5V28H57.5V33.5H58.5ZM58.5 22.5V19.75H57.5V22.5H58.5ZM58.5 19.75V17H57.5V19.75H58.5ZM58.5 28V25.25H57.5V28H58.5ZM58.4642 25.4357L58.6922 24.8659L57.7637 24.4945L57.5358 25.0643L58.4642 25.4357ZM58.7427 23.1469L58.4743 22.3419L57.5257 22.6581L57.794 23.4631L58.7427 23.1469ZM69.5 22.5V24H70.5V22.5H69.5ZM69.5 24V25.25H70.5V24H69.5ZM69.5358 25.0643L69.3078 25.6341L70.2363 26.0055L70.4642 25.4357L69.5358 25.0643ZM69.2573 27.3531L69.5257 28.1581L70.4743 27.8419L70.206 27.0369L69.2573 27.3531ZM59.5 38.5H58V39.5H59.5V38.5ZM64 38.5H62.5V39.5H64V38.5ZM62.7236 38.5528L61.7236 38.0528L61.2764 38.9472L62.2764 39.4472L62.7236 38.5528ZM65.7713 37.6917L65.584 37.9727L66.416 38.5273L66.6033 38.2464L65.7713 37.6917ZM64.5986 38.5H64V39.5H64.5986V38.5ZM70 38.5H69.3855V39.5H70V38.5ZM59.3559 38.437L59.1464 38.6464L59.8536 39.3536L60.063 39.1441L59.3559 38.437ZM68.5512 37.9844L68.5362 37.9544L67.6418 38.4016L67.6568 38.4316L68.5512 37.9844ZM68.2128 37.5057L68.1621 37.455L67.4549 38.1621L67.5057 38.2128L68.2128 37.5057ZM68.1621 37.455C67.8708 37.1636 67.4757 37 67.0637 37V38C67.2105 38 67.3512 38.0583 67.4549 38.1621L68.1621 37.455ZM61.7236 38.0528C60.9339 37.6579 59.9802 37.8127 59.3559 38.437L60.063 39.1441C60.3829 38.8242 60.8717 38.7449 61.2764 38.9472L61.7236 38.0528ZM69.3855 38.5C69.0322 38.5 68.7092 38.3004 68.5512 37.9844L67.6568 38.4316C67.9842 39.0864 68.6534 39.5 69.3855 39.5V38.5ZM66.6033 38.2464C66.706 38.0925 66.8787 38 67.0637 38V37C66.5444 37 66.0594 37.2596 65.7713 37.6917L66.6033 38.2464ZM65.584 37.9726C65.3643 38.3021 64.9946 38.5 64.5986 38.5V39.5C65.3289 39.5 66.0109 39.135 66.416 38.5274L65.584 37.9726ZM69.3078 25.6341C69.0882 26.1831 69.0703 26.7922 69.2573 27.3531L70.206 27.0369C70.0938 26.7003 70.1046 26.3349 70.2363 26.0055L69.3078 25.6341ZM68.5362 37.9544C68.4532 37.7884 68.344 37.6369 68.2128 37.5057L67.5057 38.2128C67.5609 38.268 67.6069 38.3318 67.6418 38.4016L68.5362 37.9544ZM58.6922 24.8659C58.9118 24.3169 58.9297 23.7078 58.7427 23.1469L57.794 23.4631C57.9062 23.7997 57.8954 24.1651 57.7637 24.4945L58.6922 24.8659Z" fill="white"/>
    </g>
  </g>
</svg>
