<svg viewBox="0 0 256 256" fill="none" xmlns="http://www.w3.org/2000/svg">
<g id="PasswordBg">
<g id="MainBg">
<rect id="Vector9" x="36" y="116" width="184" height="25" rx="12.5" fill="#F1F2F6"/>
<rect id="Vector8" x="42" y="66" width="178" height="25" rx="12.5" fill="#F1F2F6"/>
<rect id="Vector7" x="47" y="166" width="170" height="25" rx="12.5" fill="#F1F2F6"/>
<rect id="Vector6" x="67" y="141" width="122" height="25" rx="12.5" fill="#F1F2F6"/>
<rect id="Vector5" x="59" y="91" width="140" height="25" rx="12.5" fill="#F1F2F6"/>
<circle id="Vector4" cx="76.5" cy="153.5" r="12.5" fill="white"/>
<circle id="Vector3" cx="188.5" cy="103.5" r="12.5" fill="white"/>
<circle id="Vector2" cx="68.5" cy="103.5" r="12.5" fill="white"/>
<circle id="Vector1" cx="180.5" cy="153.5" r="12.5" fill="white"/>
</g>
<rect id="Vector4_2" x="11" y="166" width="29" height="25" rx="12.5" fill="#F1F2F6"/>
<rect id="Vector3_2" x="172" y="30" width="48" height="25" rx="12.5" fill="#F1F2F6"/>
<rect id="Vector2_2" x="114" y="30" width="32" height="25" rx="12.5" fill="#F1F2F6"/>
<rect id="Vector1_2" x="3" y="66" width="33" height="25" rx="12.5" fill="#F1F2F6"/>
<circle id="FloatingYellow" cx="68" cy="42" r="10" stroke="#FFBB4E" stroke-width="4"/>
<circle id="FloatingRed" cx="189" cy="215" r="10" stroke="#F96382" stroke-width="4"/>
</g>
</svg>
